<svg xmlns="http://www.w3.org/2000/svg" viewBox="0 0 40 40"><circle cx="20" cy="20" r="20" fill="#2196f3"/><path fill="#fff" d="M25 27H10a3 3 0 01-3-3V13h15a3 3 0 013 3zM27 17l6-4v14l-6-4z"/><path fill="#fe0000" d="M20 0C8.977 0 0 8.977 0 20s8.977 20 20 20 20-8.977 20-20S31.023 0 20 0zm0 3.78c3.807 0 7.301 1.3 10.064 3.484l-22.8 22.8A16.166 16.166 0 013.78 20C3.78 11.02 11.02 3.78 20 3.78zm12.736 6.156A16.166 16.166 0 0136.22 20c0 8.98-7.24 16.22-16.221 16.22a16.166 16.166 0 01-10.064-3.484l22.8-22.8z"/><path fill="red" d="M7.336 32.664L32.664 7.336"/></svg>